# xmcd CD database file
#
# Track frame offsets:
#	150
#	14087
#	25136
#	36438
#	75430
#	89222
#	99487
#	112511
#	126690
#	141549
#	155315
#	168265
#	192048
#	211111
#	224106
#	236777
#	251010
#	265284
#
# Disc length: 3720 seconds
#
# Revision: 1
# Processed by: cddbd v1.5.2PL0 Copyright (c) Steve Scherf et al.
# Submitted via: CDex 1.51
#
DISCID=070e8612
DTITLE=Various Artist - The Roots Of Captain Beefheart
DYEAR=2009
DGENRE=Blues
TTITLE0=Howlin' Wolf - Smokestack Lightning
TTITLE1=Muddy Waters - She's Alright
TTITLE2=Bo Diddley - Diddy Wah Diddy
TTITLE3=John Coltrane - Bakai
TTITLE4=Thelonius Monk - Monk's Dream
TTITLE5=The Nutmegs - Story Untold
TTITLE6=The Turbans - When You Dance
TTITLE7=Mississippi Fred McDowell - 61 Highway
TTITLE8=Blind Willie Johnson - John The Revelator
TTITLE9=Big Joe Williams - Providence Help The Poor
TTITLE10=Howlin' Wolf - Moanin' At Midnight
TTITLE11=Cecil Taylor - Song
TTITLE12=Ornette Coleman - The Invisible
TTITLE13=Muddy Waters - Don't Go No Farther
TTITLE14=Howlin' Wolf - I Asked For Water
TTITLE15=Sunnyland Slim - Layin In My Cell
TTITLE16=Blind Willie McTell - Drive Away Blues
TTITLE17=Tommy Johnson - Bye-Bye Blues
EXTD=YEAR: 2009
EXTT0=
EXTT1=
EXTT2=
EXTT3=
EXTT4=
EXTT5=
EXTT6=
EXTT7=
EXTT8=
EXTT9=
EXTT10=
EXTT11=
EXTT12=
EXTT13=
EXTT14=
EXTT15=
EXTT16=
EXTT17=
PLAYORDER=
